<svg xmlns="http://www.w3.org/2000/svg" width="260" height="64" viewBox="0 0 260 64" role="img" aria-label="Highsoft Sistemas">
  <rect width="260" height="64" rx="8" fill="#ffffff"/>
  <path d="M22 44V20h8v9h11v-9h8v24h-8v-9H30v9h-8Z" fill="#1456a0"/>
  <path d="M58 44V20h8v24h-8Zm17 0V20h20c5 0 9 4 9 9 0 4-2 7-6 8l8 7h-10l-7-6h-6v6h-8Zm8-12h10c2 0 3-1 3-3s-1-3-3-3H83v6Z" fill="#12a7c8"/>
  <text x="116" y="31" font-family="Arial, Helvetica, sans-serif" font-size="18" font-weight="800" fill="#172033">Highsoft</text>
  <text x="116" y="49" font-family="Arial, Helvetica, sans-serif" font-size="13" font-weight="700" fill="#657084">Sistemas</text>
</svg>
